<?xml version="1.0" encoding="utf-8"?>
<!-- Generator: Adobe Illustrator 25.0.1, SVG Export Plug-In . SVG Version: 6.00 Build 0)  -->
<svg version="1.1" id="Capa_1" xmlns="http://www.w3.org/2000/svg" xmlns:xlink="http://www.w3.org/1999/xlink" x="0px" y="0px"
	 viewBox="0 0 782.9 831.78" style="enable-background:new 0 0 782.9 831.78;" xml:space="preserve">
<style type="text/css">
	.st0{fill:#18223D;}
	.st1{fill:#D6E294;}
</style>
<g>
	<path class="st0" d="M554.64,33.13C518.31,12.1,476.15,0,431.15,0c-45,0-87.16,12.1-123.5,33.13
		c73.81,42.71,123.5,122.46,123.5,213.87s-49.69,171.16-123.5,213.87c36.34,21.03,78.49,33.13,123.5,33.13
		c45,0,87.16-12.1,123.5-33.13c73.81-42.71-123.5-122.46-123.5-213.87S628.45,75.84,554.64,33.13z"/>
	<g>
		<path class="st1" d="M295.85,236.63l-98.86-77.73c-9.62,25.26-15.18,52.49-15.96,80.94l114.82,90.28V236.63z"/>
		<path class="st1" d="M312.76,281.08l109.57-86.15c-6.14-28.8-17.36-55.69-32.59-79.81l-76.98,59.81V281.08z"/>
		<path class="st1" d="M181.31,261.56c4.88,81.59,49.41,152.38,114.54,193.66v-103.6L181.31,261.56z"/>
		<path class="st1" d="M312.76,396.08l106.11-83.43c5.82-21.01,8.93-43.16,8.93-66.03c0-11.11-0.76-22.05-2.19-32.77l-112.86,88.74
			V396.08z"/>
		<path class="st1" d="M380,101.27L380,101.27c-19.05-28-38.6-45.11-67.24-63.26v115.51L380,101.27z"/>
		<path class="st1" d="M295.85,38.01c-11.46,7.26-22.3,15.4-32.38,24.39l32.38,25.16V38.01z"/>
		<path class="st1" d="M295.85,108.97l-44.72-34.75c-19.42,19.88-35.46,43.02-47.32,68.53l92.04,72.37V108.97z"/>
		<path class="st1" d="M312.76,455.22c42.4-26.88,76.11-66.21,95.79-112.96l-95.79,75.32V455.22z"/>
	</g>
	<g>
		<g>
			<g>
				<g>
					<path class="st1" d="M143.5,742.71c4.09,3.17,9.61,5.01,16.12,5.18v4.78c-17.34,0.24-37.75,2.03-51.03,4.47l-7.46-9.61v-93.6
						c-6.89-18.36-17.21-33.18-31.51-33.18c-13.56,0-24.24,13.85-24.24,48.14c0,42.39,9,72.06,30.11,72.06c9.15,0,18.2-5.6,18.2-5.6
						l1.49,2.39c0,0-19.2,22.68-46.25,22.68C15.56,760.41,0,726.59,0,692.17c0-46.94,28.39-75.6,72.49-75.6
						c10.66,0,20.11,1.33,28.64,3.98v-69.54c-4.09-3.17-9.62-5.01-16.12-5.18v-4.78c21.49-0.3,44.17-2.09,57.01-4.48l1.49,1.49
						L143.5,742.71z"/>
					<path class="st1" d="M259.37,757.15c-22.68-1.79-52.83-1.5-75.81,0v-4.18l16.41-3.84V631.61c-4.09-3.17-9.61-5.01-16.11-5.18
						v-4.78c21.49-0.3,44.17-2.09,57.01-4.47l1.49,1.49v123.43c3.3,5.76,9.17,9.09,16.71,9.09L259.37,757.15z M195.64,567.71
						c0-12.37,10.03-22.4,22.4-22.4c12.37,0,22.4,10.03,22.4,22.4c0,12.37-10.03,22.4-22.4,22.4
						C205.67,590.11,195.64,580.08,195.64,567.71z"/>
					<path class="st1" d="M340.57,742.08c3.3,5.76,9.18,9.09,16.71,9.09l0.3,5.97c-22.68-1.79-52.83-1.49-75.81,0v-4.18l16.42-3.84
						V631.6c-4.09-3.17-9.62-5.01-16.12-5.18v-4.78c21.49-0.3,44.17-2.09,57.01-4.48l1.49,1.49V742.08z M451.62,757.15
						c-22.68-1.79-52.83-1.49-75.81,0v-4.18l16.38-3.83v-70.51c0-32.73-6.32-40.91-19.74-40.91c-13.86,0-24.06,8.69-24.06,8.69
						l-2.15-2.69c0,0,21.38-27.04,52.07-27.04c26.61,0,36.27,20.47,36.27,51.18v74.16c3.29,5.8,9.18,9.15,16.74,9.15L451.62,757.15z
						"/>
					<path class="st1" d="M553.16,729.78c43.19,3.24,62,15.03,62,41.71c0,42.68-48.28,60.29-92.82,60.29
						c-34.62,0-57.31-10.54-57.31-32.83c0-18.85,16.42-31.44,47.56-28.78l0.89,2.98c-7.81,3.11-12.8,9.84-12.8,21.33
						c0,21.73,18.17,31.04,34.99,31.04c20.39,0,41.5-14.02,41.5-33.17c0-19.73-23.21-21.97-61.7-24.73
						c-43.62-3.12-41.01-29.11-37.05-43.93l58.22-15.51c-1.09,0.04-2.17,0.05-3.26,0.05c-24.77,0-54.62-8.66-54.62-41.49
						c0-33.73,30.44-50.14,62.68-50.14c8.13,0,16.38,0.88,23.89,3.08c9.78,0.1,18.3-10.89,17.22-24.69l32.6-4.78
						c5.67,20.65-5.8,38.53-31.31,35.09c-3-0.4-6.02-1.06-8.82-1.77c11.84,6.18,20.13,17.1,20.13,35.14
						c0,24.8-16.05,39.62-36.66,45.94l-37.55,12.62c-1.25,7.61,7.42,10.68,32.21,12.54V729.78z M543.15,705.62
						c9.01,0,11.54-13.5,11.75-25.66c0.44-25.78-9.68-60.65-24.15-60.65c-9,0-11.53,13.38-11.74,25.54
						C518.55,671.21,528.37,705.62,543.15,705.62z"/>
					<path class="st1" d="M631.58,694.77c0-44.47,31.94-78.2,82.08-78.2c42.98,0,69.25,25.07,69.25,65.66
						c0,44.47-31.94,78.2-82.08,78.2C657.85,760.43,631.58,735.36,631.58,694.77z M715.93,756.2c14.22,0,21.77-20.03,22.55-42.49
						c1.32-38.07-16.31-92.9-39.94-92.9c-14.22-0.01-21.77,20.03-22.55,42.5c-1.32,38.07,16.31,92.9,39.94,92.9L715.93,756.2z"/>
				</g>
			</g>
		</g>
	</g>
</g>
</svg>
